PathFileType	4	(X/Y/Z)	path1_09_0-604.trc
DataRate	CameraRate	NumFrames	NumMarkers	Units	OrigDataRate	OrigDataStartFrame	OrigNumFrames
30	30	6	22	m	30	453	604
Frame#	Time	Hip			RHip			RKnee			RAnkle			RBigToe			RSmallToe			RHeel			LHip			LKnee			LAnkle			LBigToe			LSmallToe			LHeel			Neck			Head			Nose			RShoulder			RElbow			RWrist			LShoulder			LElbow			LWrist		
		X1	Y1	Z1	X2	Y2	Z2	X3	Y3	Z3	X4	Y4	Z4	X5	Y5	Z5	X6	Y6	Z6	X7	Y7	Z7	X8	Y8	Z8	X9	Y9	Z9	X10	Y10	Z10	X11	Y11	Z11	X12	Y12	Z12	X13	Y13	Z13	X14	Y14	Z14	X15	Y15	Z15	X16	Y16	Z16	X17	Y17	Z17	X18	Y18	Z18	X19	Y19	Z19	X20	Y20	Z20	X21	Y21	Z21	X22	Y22	Z22
454	15.133333333333333	-1.0590526376715956	0.8252469849173708	0.8305671776388949	-1.0652087966588548	0.7983551708029248	0.7282880012735797	-1.1295805902480154	0.45195337616423775	0.7313411289188528	-1.1371615022285135	0.08138990701101706	0.7791288308279969	-1.337725457918846	0.0071517301708152745	0.7691862048069972	-1.2910017518121446	-0.00799085772733911	0.7302436136036267	-1.1113176727663199	0.012847630426291265	0.7926120572150962	-1.0487216214702197	0.7927993867719205	0.9150688275639197	-1.0711495337018149	0.4412538605766935	0.9070531818387364	-0.7674842189652847	0.22946253774607783	0.885159029903771	-0.801971119078748	0.02716129263155738	0.906216271630731	-0.7553687294112734	0.05273622029070767	0.9422794831237613	-0.683987519382194	0.2154507714972854	0.8738596295141872	-1.071044984482295	1.4348181996519382	0.8210436918008989	-1.1782090439685318	1.7005889645104157	0.8201237092624417	-1.2483856607166195	1.5516636524870249	0.8347914391763976	-1.0515322449869375	1.3540313253007064	0.6246590484552251	-0.9698624478795613	1.061751993144537	0.618951594529368	-1.0040696707280712	0.8176597228667605	0.5849180242865928	-1.06744870396676	1.3431307790080644	1.0160976117224039	-1.0852050800469066	1.0656553456803173	1.0549048052081604	-1.2060210050657885	0.8378801507255474	1.058374510807175
455	15.166666666666666	-1.0998386674218374	0.8290146386730944	0.8303051596143932	-1.102248116301477	0.8007438395989802	0.7277929884633592	-1.143998378668674	0.4560931062682902	0.7369379061764324	-1.136487722960705	0.08272550625592222	0.779938490531627	-1.3352147016890905	0.006698723982929137	0.7686384222933844	-1.2878800579452068	-0.00918197777276721	0.7316974508980062	-1.105096574153194	0.015470958683219176	0.7915687888802657	-1.0934044371819767	0.795982547366725	0.9153272376629498	-1.1488534290067203	0.4521341166255408	0.9129434378700305	-0.846413712274764	0.2407963746158442	0.8970682195343039	-0.8750208256766542	0.03668536026452191	0.9209373675828724	-0.8310769737001709	0.06428897168637553	0.9562345057288094	-0.7657822150566048	0.22671781052520526	0.8857987318504377	-1.1067880153229148	1.4395441852025286	0.8189001657722599	-1.2159377014471449	1.703273182559977	0.8192234240054915	-1.2890476120139664	1.5555078790663819	0.8396515845755078	-1.0880908101462134	1.3563759523337267	0.6235535911231423	-1.0225647872167918	1.0680122333405975	0.6119416104998624	-1.0630794746252852	0.8227919466521126	0.5815374552924161	-1.1009293879437663	1.3484766377895145	1.0132811959584802	-1.1052641690601652	1.065485441317093	1.0452237159943047	-1.2145935800488228	0.8365795694477772	1.0592513937042292
456	15.2	-1.1386416116617473	0.832397416264982	0.8302663463967027	-1.1370402154977215	0.8027925597011886	0.7279892142246964	-1.1565307589049498	0.45976380000314193	0.7431198133457046	-1.1364731013112135	0.08446898699622848	0.7806154540170848	-1.3322830099591536	0.007604597408779848	0.7676553889966464	-1.2841032088302813	-0.009238306326490977	0.7316396675758589	-1.0994174066125826	0.018617500717609356	0.7900717802782761	-1.1351256041018751	0.7990108825635658	0.9167616475921244	-1.2194367014499166	0.46296200020694284	0.9194143735438086	-0.930905479694533	0.24100076368035167	0.9094163285022747	-0.9698013130796022	0.0429620530504347	0.9360198413817581	-0.9283122139895206	0.07016636849093423	0.9717375327389294	-0.8556946545083092	0.2227537360684116	0.8970743486051315	-1.1418674547820915	1.4436787214928395	0.8174289124352921	-1.2529995314247906	1.7061924673333924	0.8199665153239273	-1.3292869277038328	1.559049695607637	0.8464543621316151	-1.1220190453550167	1.3569774682457851	0.6244732140094792	-1.078633795362601	1.073793938947512	0.6034065647155991	-1.126660710604001	0.827689678644218	0.5764897886210073	-1.1329338183849573	1.3526520931572086	1.0114040746740633	-1.1231377056672218	1.065298969142882	1.0374689084008546	-1.220433656928345	0.8352076468198067	1.0599772762237494
457	15.233333333333333	-1.1746877389929293	0.8351756917874175	0.8303628916757788	-1.1691799782223862	0.804698345984093	0.7285417807405635	-1.168592355700944	0.46233063226856225	0.7488997760518138	-1.1372419117343402	0.08592893092857441	0.7815097043789652	-1.3292736161309726	0.008745073630318278	0.7667235605862406	-1.280072774693676	-0.008453335737296806	0.7308265946862138	-1.0960827243602578	0.02156179016601546	0.7896336339120081	-1.1729818299375943	0.8019341390889771	0.9191900092900487	-1.2798282779075296	0.4715531482973705	0.9269307643460682	-1.020345094352189	0.2290900387000899	0.9215046641000079	-1.0849466938053982	0.04565411268273719	0.9505035539914631	-1.042849254843535	0.06989207845621544	0.9868822968843017	-0.9532800262565735	0.20321659560789612	0.9069999956347408	-1.1767507322972017	1.4466000435000366	0.8168403591287252	-1.2896502883624816	1.7092664009005951	0.8219854196856705	-1.3676709879239715	1.5618024509744988	0.8526495380424118	-1.1531301120427353	1.3557129990715286	0.627640662016841	-1.1363299550462207	1.078516491026736	0.5940691887068101	-1.193640217667436	0.8321011478316335	0.5705046685567364	-1.163537610786447	1.3550853602437494	1.0111222829908968	-1.1408123961717243	1.0657183141041875	1.033446174311542	-1.2250387935059193	0.8335443182435227	1.0613740083906051
458	15.266666666666667	-1.2077178366606964	0.8371349571792478	0.8305927108454336	-1.1988105203504777	0.8065392408689226	0.7289342341895944	-1.1812228263988784	0.46368242952637817	0.7537892236370094	-1.138633776579271	0.08627865144948066	0.7827855674231284	-1.3260640580026997	0.009419775053399644	0.7663722342659424	-1.276391957468841	-0.006996251905184287	0.7297519213585234	-1.0961980985648756	0.023576734168076794	0.7914373851481734	-1.2069595885484687	0.8045766318847111	0.9222090713872662	-1.3303084817174633	0.4771697505752685	0.9348169293033952	-1.1151826909152276	0.2069396710527697	0.9327870142929399	-1.215369539704572	0.04587174493467511	0.9630590339144905	-1.1692196692333994	0.065682854508603	1.0002640196238188	-1.0589339323311047	0.17123640381601718	0.9152738316743906	-1.2117651178686863	1.4478967808003655	0.817057428328854	-1.3263015480559468	1.7122334096647929	0.8248237221714758	-1.4031903995858481	1.5633463626697657	0.8560066205416844	-1.1822001478486115	1.3532153698500435	0.6330571378735298	-1.1933478255434662	1.0817968311074788	0.5849744067510441	-1.2621324128365319	0.8361875553518673	0.5648961407089883	-1.1932762158730317	1.3554570492478295	1.012269198546942	-1.1602884630844714	1.066945316284715	1.0340492356630469	-1.2300597750662878	0.8314184375623892	1.0642880141945736
459	15.3	-1.2381091446155286	0.8380393124953373	0.8310106497388532	-1.2266764318163772	0.8080060719098608	0.7288774353450096	-1.1949575868409783	0.46400230191821995	0.7574305001792162	-1.1403356588685025	0.08521137651033095	0.7842719842206503	-1.3224658070062612	0.009526958091223567	0.766955803955088	-1.2738964793326555	-0.0052202220903870685	0.7286869299590227	-1.0994974873871453	0.024334256495340146	0.7954418271991855	-1.237904666022876	0.8064491706545165	0.9252990182932423	-1.3729787282686077	0.4798730117867591	0.9418861515021769	-1.214916092915827	0.17915178275232368	0.942771782932457	-1.3512809165864255	0.04586961585342345	0.9719318233983487	-1.300188385731778	0.06063427535892842	1.0104500348756933	-1.1714720312975888	0.133286276318176	0.9219047350724765	-1.2469630748538865	1.4474450615042782	0.8177469912421992	-1.3632416090777364	1.7145969240564696	0.8278047082469805	-1.4359803505123339	1.5633503799860404	0.8559073411244922	-1.2108022573773602	1.3504379736676522	0.6402703068787228	-1.248206237032024	1.0835168655845948	0.576903383454513	-1.3304737221402136	0.8404140151665052	0.5608425581986262	-1.2228210113623044	1.353665545861089	1.0142881907375014	-1.18293384946642	1.0687788197595485	1.0391320834566729	-1.2370961727664003	0.8289204392123112	1.0691699211137184
